<mxfile host="app.diagrams.net" modified="2024-01-21T17:51:39.124Z" agent="Mozilla/5.0 (X11; Linux x86_64; rv:109.0) Gecko/20100101 Firefox/119.0" version="22.1.21" etag="uPJfcrWLwWx6jkLZSHV-" type="github">
  <diagram name="Page-1" id="YG2D3ZeP19-YRarHJaL9">
    <mxGraphModel>
      <root>
        <mxCell id="0" />
        <mxCell id="1" parent="0" />
      </root>
    </mxGraphModel>
  </diagram>
</mxfile>
